<?xml version="1.0" encoding="UTF-8" standalone="no"?>
<!DOCTYPE svg PUBLIC "-//W3C//DTD SVG 1.1//EN" "http://www.w3.org/Graphics/SVG/1.1/DTD/svg11.dtd">
<svg width="100%" height="100%" viewBox="0 0 999 1020" version="1.1" xmlns="http://www.w3.org/2000/svg" xmlns:xlink="http://www.w3.org/1999/xlink" xml:space="preserve" xmlns:serif="http://www.serif.com/" style="fill-rule:evenodd;clip-rule:evenodd;stroke-linejoin:round;stroke-miterlimit:2;">
    <g transform="matrix(1,0,0,1,-18,-1)">
        <g id="fladder_icon" transform="matrix(1.62562,0,0,1.62562,-336.346,-293.316)">
            <g transform="matrix(-219.465,692.872,568.765,180.155,539.36,136.978)">
                <path d="M0.563,0.51C0.547,0.51 0.532,0.5 0.523,0.485C0.513,0.469 0.509,0.45 0.512,0.431C0.535,0.299 0.574,0.138 0.574,0.024C0.575,-0.188 0.527,-0.214 0.338,-0.3C0.288,-0.323 0.188,-0.462 0.179,-0.442C0.171,-0.421 0.143,-0.301 0.208,-0.173C0.279,-0.03 0.316,0.522 0.316,0.522C0.329,0.598 0.378,0.661 0.439,0.685C0.499,0.708 0.582,0.69 0.628,0.637C0.628,0.637 0.661,0.6 0.69,0.567C0.697,0.559 0.699,0.547 0.696,0.536C0.692,0.525 0.684,0.517 0.674,0.516C0.64,0.515 0.598,0.512 0.563,0.51Z" style="fill:url(#_Linear1);"/>
            </g>
            <g transform="matrix(-219.465,692.872,568.765,180.155,476.499,117.067)">
                <path d="M0.742,0.576C0.762,0.576 0.781,0.566 0.794,0.548C0.813,0.521 0.829,0.492 0.838,0.477C0.899,0.389 0.952,0.254 0.926,0.126C0.905,0.024 0.703,-0.146 0.615,-0.216C0.608,-0.22 0.6,-0.22 0.595,-0.215C0.589,-0.21 0.586,-0.2 0.588,-0.192C0.604,-0.123 0.628,0.004 0.627,0.144C0.626,0.228 0.593,0.408 0.567,0.509C0.563,0.523 0.565,0.539 0.572,0.551C0.579,0.563 0.59,0.57 0.602,0.571C0.647,0.572 0.707,0.574 0.742,0.576Z" style="fill:url(#_Linear2);"/>
            </g>
        </g>
    </g>
    <defs>
        <linearGradient id="_Linear1" x1="0" y1="0" x2="1" y2="0" gradientUnits="userSpaceOnUse" gradientTransform="matrix(1,5.55112e-17,0,-1,0,0.24555)"><stop offset="0" style="stop-color:rgb(232,55,73);stop-opacity:1"/><stop offset="1" style="stop-color:rgb(252,194,48);stop-opacity:1"/></linearGradient>
        <linearGradient id="_Linear2" x1="0" y1="0" x2="1" y2="0" gradientUnits="userSpaceOnUse" gradientTransform="matrix(1,5.55112e-17,0,-1,0,0.356071)"><stop offset="0" style="stop-color:rgb(232,55,73);stop-opacity:1"/><stop offset="1" style="stop-color:rgb(252,194,48);stop-opacity:1"/></linearGradient>
    </defs>
</svg>
