<?xml version="1.0" encoding="UTF-8" standalone="no"?>
<!DOCTYPE svg PUBLIC "-//W3C//DTD SVG 1.1//EN" "http://www.w3.org/Graphics/SVG/1.1/DTD/svg11.dtd">
<svg width="100%" height="100%" viewBox="0 0 941 962" version="1.1" xmlns="http://www.w3.org/2000/svg" xmlns:xlink="http://www.w3.org/1999/xlink" xml:space="preserve" xmlns:serif="http://www.serif.com/" style="fill-rule:evenodd;clip-rule:evenodd;stroke-linejoin:round;stroke-miterlimit:2;">
    <g transform="matrix(1,0,0,1,-44,-35)">
        <g transform="matrix(1.62562,0,0,1.62562,-336.346,-293.316)">
            <g id="fladder_icon_outline">
                <g id="Icon">
                    <g transform="matrix(-206.63,652.351,535.503,169.619,536.482,160.569)">
                        <path d="M0.563,0.51C0.547,0.51 0.532,0.5 0.523,0.485C0.513,0.469 0.509,0.45 0.512,0.431C0.535,0.299 0.574,0.138 0.574,0.024C0.575,-0.188 0.527,-0.214 0.338,-0.3C0.288,-0.323 0.188,-0.462 0.179,-0.442C0.171,-0.421 0.143,-0.301 0.208,-0.173C0.279,-0.03 0.316,0.522 0.316,0.522C0.329,0.598 0.378,0.661 0.439,0.685C0.499,0.708 0.582,0.69 0.628,0.637C0.628,0.637 0.661,0.6 0.69,0.567C0.697,0.559 0.699,0.547 0.696,0.536C0.692,0.525 0.684,0.517 0.674,0.516C0.64,0.515 0.598,0.512 0.563,0.51ZM0.215,-0.337C0.217,-0.299 0.226,-0.253 0.25,-0.204C0.25,-0.204 0.25,-0.204 0.25,-0.204C0.273,-0.158 0.294,-0.071 0.311,0.028C0.344,0.227 0.362,0.478 0.365,0.513C0.375,0.567 0.41,0.61 0.453,0.627C0.499,0.645 0.56,0.633 0.595,0.593L0.612,0.573L0.561,0.571L0.561,0.571C0.531,0.569 0.502,0.551 0.484,0.522C0.465,0.493 0.458,0.455 0.464,0.419C0.464,0.418 0.464,0.418 0.464,0.418C0.486,0.29 0.524,0.134 0.525,0.024C0.525,-0.046 0.521,-0.091 0.504,-0.125C0.492,-0.147 0.474,-0.163 0.45,-0.179C0.417,-0.2 0.375,-0.219 0.321,-0.244C0.301,-0.253 0.274,-0.275 0.247,-0.303C0.237,-0.314 0.226,-0.325 0.215,-0.337Z" style="fill:white;"/>
                    </g>
                    <g transform="matrix(-206.63,652.351,535.503,169.619,477.298,141.822)">
                        <path d="M0.748,0.566C0.768,0.566 0.787,0.556 0.8,0.538C0.819,0.511 0.835,0.481 0.845,0.467C0.905,0.379 0.952,0.254 0.926,0.126C0.905,0.024 0.703,-0.146 0.615,-0.216C0.608,-0.22 0.6,-0.22 0.595,-0.215C0.589,-0.21 0.586,-0.2 0.588,-0.192C0.604,-0.123 0.628,0.004 0.627,0.144C0.626,0.228 0.6,0.398 0.573,0.499C0.569,0.513 0.571,0.528 0.578,0.541C0.585,0.553 0.597,0.56 0.609,0.561C0.653,0.562 0.713,0.564 0.748,0.566ZM0.655,-0.109C0.667,-0.039 0.677,0.051 0.676,0.145C0.675,0.229 0.651,0.394 0.624,0.501L0.75,0.505L0.75,0.505C0.755,0.506 0.76,0.503 0.763,0.498C0.763,0.498 0.763,0.498 0.763,0.498C0.781,0.472 0.797,0.443 0.807,0.429C0.807,0.429 0.807,0.429 0.807,0.429C0.858,0.354 0.9,0.249 0.878,0.141C0.871,0.108 0.838,0.069 0.8,0.027C0.755,-0.022 0.702,-0.07 0.655,-0.109Z" style="fill:white;"/>
                    </g>
                </g>
            </g>
        </g>
    </g>
</svg>
