<?xml version="1.0" encoding="UTF-8" standalone="no"?>
<!DOCTYPE svg PUBLIC "-//W3C//DTD SVG 1.1//EN" "http://www.w3.org/Graphics/SVG/1.1/DTD/svg11.dtd">
<svg width="100%" height="100%" viewBox="0 0 987 1007" version="1.1" xmlns="http://www.w3.org/2000/svg" xmlns:xlink="http://www.w3.org/1999/xlink" xml:space="preserve" xmlns:serif="http://www.serif.com/" style="fill-rule:evenodd;clip-rule:evenodd;stroke-linejoin:round;stroke-miterlimit:2;">
    <g transform="matrix(1,0,0,1,-17,-10)">
        <g transform="matrix(1.26812,0,0,1.26579,-136.879,-155.473)">
            <g id="fladder_icon_outline">
                <path d="M700.438,735.324C697.125,751.035 687.472,764.673 673.768,773.003C616.839,807.634 462.561,901.416 462.561,901.416C409.732,933.443 343.74,934.501 289.91,904.185C236.081,873.869 204.798,800.132 204.176,737.209C203.346,653.247 160.046,568.128 136.415,527.839C133.842,523.497 134.245,518.008 137.425,514.09C140.605,510.172 145.886,508.658 150.654,510.296C192.694,524.745 218.892,555.605 327.704,553.805L601.656,553.805C647.877,557.512 670.954,570.501 694.251,610.125C715.389,646.075 708.055,699.669 700.438,735.324ZM212.214,583.199C238.918,591.806 274.122,598.118 328.067,597.256C328.055,597.256 599.834,597.256 599.834,597.256C627.913,599.755 642.464,607.658 656.881,632.178C656.881,632.178 656.881,632.178 656.881,632.179C672.743,659.154 663.743,699.477 658.028,726.23C658.02,726.267 658.012,726.304 658.004,726.342C657.167,730.309 654.73,733.752 651.27,735.855C651.266,735.858 651.262,735.86 651.258,735.863C594.783,770.217 442.499,862.787 440.092,864.251C400.639,888.161 351.361,888.947 311.163,866.308C269.779,843.001 248.023,785.155 247.545,736.779C247.011,682.704 230.798,628.093 212.214,583.199ZM206.525,401.388C200.042,380.411 205.693,358.337 196.685,298.676C181.855,200.461 116.545,173.39 144.907,146.369C169.469,122.969 294.071,127.376 363.154,150.212C481.515,189.339 701.453,297.422 815.866,395.383C862.487,435.299 901.559,505.671 899.534,554.192C896.532,626.144 830.311,679.724 788.14,703.61C783.159,706.321 777.072,705.955 772.45,702.669C767.827,699.382 765.473,693.747 766.383,688.141C786.994,564.674 705.631,481.875 601.656,481.875L327.704,481.875C261.031,481.875 221.297,449.191 206.525,401.388ZM812.428,633.281C809.05,584.213 791.009,542.545 763.738,510.511C725.049,465.066 667.041,438.424 601.656,438.424L327.704,438.424C284.59,438.424 257.508,419.449 247.956,388.538C247.956,388.537 247.956,388.537 247.956,388.537C241.879,368.873 248.012,348.104 239.568,292.177C239.568,292.177 239.568,292.177 239.568,292.177C232.552,245.713 216.096,212.67 200.886,187.75C198.711,184.186 196.293,180.275 193.903,176.436C200.465,175.472 207.569,174.674 213.886,174.463C256.929,173.03 312.257,179.143 349.564,191.475C464.075,229.329 676.997,333.64 787.688,428.414C787.688,428.415 787.688,428.415 787.689,428.415C824.476,459.911 857.799,514.09 856.201,552.377C856.201,552.377 856.201,552.377 856.201,552.377C854.819,585.485 835.076,612.735 812.428,633.281Z" style="fill:white;"/>
            </g>
        </g>
    </g>
</svg>
